<mxfile host="app.diagrams.net" modified="2023-08-10T08:23:38.334Z" agent="Mozilla/5.0 (Macintosh; Intel Mac OS X 10_15_7) AppleWebKit/537.36 (KHTML, like Gecko) Chrome/115.0.0.0 Safari/537.36" version="21.6.6" etag="C0KtqvupoVYGvBdpv29r" type="github">
  <diagram name="第 1 页" id="jCqg6PfGvyjHn3g_SWux">
    <mxGraphModel>
      <root>
        <mxCell id="0" />
        <mxCell id="1" parent="0" />
      </root>
    </mxGraphModel>
  </diagram>
</mxfile>
